<mxfile host="Electron" agent="Mozilla/5.0 (Macintosh; Intel Mac OS X 10_15_7) AppleWebKit/537.36 (KHTML, like Gecko) draw.io/26.0.4 Chrome/128.0.6613.186 Electron/32.2.5 Safari/537.36" version="26.0.4">
  <diagram name="Page-1" id="s_LUJl-gnVCGWqeVnSWm">
    <mxGraphModel dx="1114" dy="878" grid="1" gridSize="10" guides="1" tooltips="1" connect="1" arrows="1" fold="1" page="1" pageScale="1" pageWidth="850" pageHeight="1100" math="0" shadow="0">
      <root>
        <mxCell id="0" />
        <mxCell id="1" parent="0" />
        <mxCell id="-NdfC_UC0HU0sGbW0WJT-13" style="edgeStyle=orthogonalEdgeStyle;rounded=0;orthogonalLoop=1;jettySize=auto;html=1;exitX=1;exitY=0.5;exitDx=0;exitDy=0;entryX=0;entryY=0.5;entryDx=0;entryDy=0;endArrow=none;endFill=0;strokeColor=#56517E;strokeWidth=6;fillColor=#e1d5e7;fontFamily=Helvetica,Arial,sans-serif;" parent="1" source="-NdfC_UC0HU0sGbW0WJT-1" target="-NdfC_UC0HU0sGbW0WJT-7" edge="1">
          <mxGeometry relative="1" as="geometry" />
        </mxCell>
        <mxCell id="-NdfC_UC0HU0sGbW0WJT-1" value="" style="ellipse;whiteSpace=wrap;html=1;aspect=fixed;fillColor=#d0cee2;strokeColor=#56517e;fontFamily=Helvetica,Arial,sans-serif;" parent="1" vertex="1">
          <mxGeometry x="250" y="370" width="30" height="30" as="geometry" />
        </mxCell>
        <mxCell id="-NdfC_UC0HU0sGbW0WJT-2" value="latest" style="shape=display;whiteSpace=wrap;html=1;fillColor=#dae8fc;strokeColor=#6c8ebf;fontFamily=Helvetica,Arial,sans-serif;align=right;spacingRight=4;" parent="1" vertex="1">
          <mxGeometry x="240" y="340" width="50" height="20" as="geometry" />
        </mxCell>
        <mxCell id="-NdfC_UC0HU0sGbW0WJT-3" value="v1" style="shape=display;whiteSpace=wrap;html=1;fillColor=#dae8fc;strokeColor=#6c8ebf;fontFamily=Helvetica,Arial,sans-serif;align=right;spacingRight=4;" parent="1" vertex="1">
          <mxGeometry x="240" y="310" width="50" height="20" as="geometry" />
        </mxCell>
        <mxCell id="-NdfC_UC0HU0sGbW0WJT-4" value="v1.0" style="shape=display;whiteSpace=wrap;html=1;fillColor=#dae8fc;strokeColor=#6c8ebf;fontFamily=Helvetica,Arial,sans-serif;align=right;spacingRight=4;" parent="1" vertex="1">
          <mxGeometry x="240" y="280" width="50" height="20" as="geometry" />
        </mxCell>
        <mxCell id="-NdfC_UC0HU0sGbW0WJT-5" value="v1.0.0" style="shape=display;whiteSpace=wrap;html=1;fillColor=#dae8fc;strokeColor=#6c8ebf;fontFamily=Helvetica,Arial,sans-serif;align=right;spacingRight=4;" parent="1" vertex="1">
          <mxGeometry x="240" y="250" width="50" height="20" as="geometry" />
        </mxCell>
        <mxCell id="-NdfC_UC0HU0sGbW0WJT-6" value="1.0.0" style="shape=display;whiteSpace=wrap;html=1;fillColor=#fff2cc;strokeColor=#d6b656;fontFamily=Helvetica,Arial,sans-serif;align=right;spacingRight=4;" parent="1" vertex="1">
          <mxGeometry x="240" y="220" width="50" height="20" as="geometry" />
        </mxCell>
        <mxCell id="-NdfC_UC0HU0sGbW0WJT-32" style="edgeStyle=orthogonalEdgeStyle;shape=connector;rounded=0;orthogonalLoop=1;jettySize=auto;html=1;exitX=1;exitY=0.5;exitDx=0;exitDy=0;entryX=0;entryY=0.5;entryDx=0;entryDy=0;strokeColor=#56517E;strokeWidth=6;align=center;verticalAlign=middle;fontFamily=Helvetica,Arial,sans-serif;fontSize=11;fontColor=default;labelBackgroundColor=default;endArrow=none;endFill=0;fillColor=#e1d5e7;" parent="1" source="-NdfC_UC0HU0sGbW0WJT-7" target="-NdfC_UC0HU0sGbW0WJT-14" edge="1">
          <mxGeometry relative="1" as="geometry" />
        </mxCell>
        <mxCell id="-NdfC_UC0HU0sGbW0WJT-7" value="" style="ellipse;whiteSpace=wrap;html=1;aspect=fixed;fillColor=#d0cee2;strokeColor=#56517e;fontFamily=Helvetica,Arial,sans-serif;" parent="1" vertex="1">
          <mxGeometry x="340" y="370" width="30" height="30" as="geometry" />
        </mxCell>
        <mxCell id="-NdfC_UC0HU0sGbW0WJT-8" value="latest" style="shape=display;whiteSpace=wrap;html=1;fillColor=#dae8fc;strokeColor=#6c8ebf;fontFamily=Helvetica,Arial,sans-serif;spacingRight=4;align=right;" parent="1" vertex="1">
          <mxGeometry x="330" y="340" width="50" height="20" as="geometry" />
        </mxCell>
        <mxCell id="-NdfC_UC0HU0sGbW0WJT-9" value="v1" style="shape=display;whiteSpace=wrap;html=1;fillColor=#dae8fc;strokeColor=#6c8ebf;fontFamily=Helvetica,Arial,sans-serif;spacingRight=4;align=right;" parent="1" vertex="1">
          <mxGeometry x="330" y="310" width="50" height="20" as="geometry" />
        </mxCell>
        <mxCell id="-NdfC_UC0HU0sGbW0WJT-10" value="v1.0" style="shape=display;whiteSpace=wrap;html=1;fillColor=#dae8fc;strokeColor=#6c8ebf;fontFamily=Helvetica,Arial,sans-serif;spacingRight=4;align=right;" parent="1" vertex="1">
          <mxGeometry x="330" y="280" width="50" height="20" as="geometry" />
        </mxCell>
        <mxCell id="-NdfC_UC0HU0sGbW0WJT-11" value="v1.0.1" style="shape=display;whiteSpace=wrap;html=1;fillColor=#dae8fc;strokeColor=#6c8ebf;fontFamily=Helvetica,Arial,sans-serif;spacingRight=4;align=right;" parent="1" vertex="1">
          <mxGeometry x="330" y="250" width="50" height="20" as="geometry" />
        </mxCell>
        <mxCell id="-NdfC_UC0HU0sGbW0WJT-12" value="1.0.1" style="shape=display;whiteSpace=wrap;html=1;fillColor=#fff2cc;strokeColor=#d6b656;fontFamily=Helvetica,Arial,sans-serif;spacingRight=4;align=right;" parent="1" vertex="1">
          <mxGeometry x="330" y="220" width="50" height="20" as="geometry" />
        </mxCell>
        <mxCell id="-NdfC_UC0HU0sGbW0WJT-14" value="" style="ellipse;whiteSpace=wrap;html=1;aspect=fixed;fillColor=#d0cee2;strokeColor=#56517e;fontFamily=Helvetica,Arial,sans-serif;" parent="1" vertex="1">
          <mxGeometry x="430" y="370" width="30" height="30" as="geometry" />
        </mxCell>
        <mxCell id="-NdfC_UC0HU0sGbW0WJT-15" value="latest" style="shape=display;whiteSpace=wrap;html=1;fillColor=#dae8fc;strokeColor=#6c8ebf;fontFamily=Helvetica,Arial,sans-serif;spacingRight=4;align=right;" parent="1" vertex="1">
          <mxGeometry x="420" y="340" width="50" height="20" as="geometry" />
        </mxCell>
        <mxCell id="-NdfC_UC0HU0sGbW0WJT-16" value="v1" style="shape=display;whiteSpace=wrap;html=1;fillColor=#dae8fc;strokeColor=#6c8ebf;fontFamily=Helvetica,Arial,sans-serif;spacingRight=4;align=right;" parent="1" vertex="1">
          <mxGeometry x="420" y="310" width="50" height="20" as="geometry" />
        </mxCell>
        <mxCell id="-NdfC_UC0HU0sGbW0WJT-17" value="v1.1" style="shape=display;whiteSpace=wrap;html=1;fillColor=#dae8fc;strokeColor=#6c8ebf;fontFamily=Helvetica,Arial,sans-serif;spacingRight=4;align=right;" parent="1" vertex="1">
          <mxGeometry x="420" y="280" width="50" height="20" as="geometry" />
        </mxCell>
        <mxCell id="-NdfC_UC0HU0sGbW0WJT-18" value="v1.1.0" style="shape=display;whiteSpace=wrap;html=1;fillColor=#dae8fc;strokeColor=#6c8ebf;fontFamily=Helvetica,Arial,sans-serif;spacingRight=4;align=right;" parent="1" vertex="1">
          <mxGeometry x="420" y="250" width="50" height="20" as="geometry" />
        </mxCell>
        <mxCell id="-NdfC_UC0HU0sGbW0WJT-19" value="1.1.0" style="shape=display;whiteSpace=wrap;html=1;fillColor=#fff2cc;strokeColor=#d6b656;fontFamily=Helvetica,Arial,sans-serif;spacingRight=4;align=right;" parent="1" vertex="1">
          <mxGeometry x="420" y="220" width="50" height="20" as="geometry" />
        </mxCell>
        <mxCell id="-NdfC_UC0HU0sGbW0WJT-34" style="edgeStyle=orthogonalEdgeStyle;shape=connector;rounded=0;orthogonalLoop=1;jettySize=auto;html=1;exitX=1;exitY=0.5;exitDx=0;exitDy=0;entryX=0;entryY=0.5;entryDx=0;entryDy=0;strokeColor=#56517E;strokeWidth=6;align=center;verticalAlign=middle;fontFamily=Helvetica,Arial,sans-serif;fontSize=11;fontColor=default;labelBackgroundColor=default;endArrow=none;endFill=0;fillColor=#e1d5e7;" parent="1" source="-NdfC_UC0HU0sGbW0WJT-20" target="-NdfC_UC0HU0sGbW0WJT-26" edge="1">
          <mxGeometry relative="1" as="geometry" />
        </mxCell>
        <mxCell id="-NdfC_UC0HU0sGbW0WJT-20" value="" style="ellipse;whiteSpace=wrap;html=1;aspect=fixed;fillColor=#d0cee2;strokeColor=#56517e;fontFamily=Helvetica,Arial,sans-serif;" parent="1" vertex="1">
          <mxGeometry x="520" y="370" width="30" height="30" as="geometry" />
        </mxCell>
        <mxCell id="-NdfC_UC0HU0sGbW0WJT-21" value="latest" style="shape=display;whiteSpace=wrap;html=1;fillColor=#dae8fc;strokeColor=#6c8ebf;fontFamily=Helvetica,Arial,sans-serif;spacingRight=4;align=right;" parent="1" vertex="1">
          <mxGeometry x="510" y="340" width="50" height="20" as="geometry" />
        </mxCell>
        <mxCell id="-NdfC_UC0HU0sGbW0WJT-22" value="v1" style="shape=display;whiteSpace=wrap;html=1;fillColor=#dae8fc;strokeColor=#6c8ebf;fontFamily=Helvetica,Arial,sans-serif;spacingRight=4;align=right;" parent="1" vertex="1">
          <mxGeometry x="510" y="310" width="50" height="20" as="geometry" />
        </mxCell>
        <mxCell id="-NdfC_UC0HU0sGbW0WJT-23" value="v1.1" style="shape=display;whiteSpace=wrap;html=1;fillColor=#dae8fc;strokeColor=#6c8ebf;fontFamily=Helvetica,Arial,sans-serif;spacingRight=4;align=right;" parent="1" vertex="1">
          <mxGeometry x="510" y="280" width="50" height="20" as="geometry" />
        </mxCell>
        <mxCell id="-NdfC_UC0HU0sGbW0WJT-24" value="v1.1.1" style="shape=display;whiteSpace=wrap;html=1;fillColor=#dae8fc;strokeColor=#6c8ebf;fontFamily=Helvetica,Arial,sans-serif;spacingRight=4;align=right;" parent="1" vertex="1">
          <mxGeometry x="510" y="250" width="50" height="20" as="geometry" />
        </mxCell>
        <mxCell id="-NdfC_UC0HU0sGbW0WJT-25" value="1.1.1" style="shape=display;whiteSpace=wrap;html=1;fillColor=#fff2cc;strokeColor=#d6b656;fontFamily=Helvetica,Arial,sans-serif;spacingRight=4;align=right;" parent="1" vertex="1">
          <mxGeometry x="510" y="220" width="50" height="20" as="geometry" />
        </mxCell>
        <mxCell id="-NdfC_UC0HU0sGbW0WJT-26" value="" style="ellipse;whiteSpace=wrap;html=1;aspect=fixed;fillColor=#d0cee2;strokeColor=#56517e;fontFamily=Helvetica,Arial,sans-serif;" parent="1" vertex="1">
          <mxGeometry x="610" y="370" width="30" height="30" as="geometry" />
        </mxCell>
        <mxCell id="-NdfC_UC0HU0sGbW0WJT-27" value="latest" style="shape=display;whiteSpace=wrap;html=1;fillColor=#dae8fc;strokeColor=#6c8ebf;fontFamily=Helvetica,Arial,sans-serif;spacingRight=4;align=right;" parent="1" vertex="1">
          <mxGeometry x="600" y="340" width="50" height="20" as="geometry" />
        </mxCell>
        <mxCell id="-NdfC_UC0HU0sGbW0WJT-28" value="v2" style="shape=display;whiteSpace=wrap;html=1;fillColor=#dae8fc;strokeColor=#6c8ebf;fontFamily=Helvetica,Arial,sans-serif;spacingRight=4;align=right;" parent="1" vertex="1">
          <mxGeometry x="600" y="310" width="50" height="20" as="geometry" />
        </mxCell>
        <mxCell id="-NdfC_UC0HU0sGbW0WJT-29" value="v2.0" style="shape=display;whiteSpace=wrap;html=1;fillColor=#dae8fc;strokeColor=#6c8ebf;fontFamily=Helvetica,Arial,sans-serif;spacingRight=4;align=right;" parent="1" vertex="1">
          <mxGeometry x="600" y="280" width="50" height="20" as="geometry" />
        </mxCell>
        <mxCell id="-NdfC_UC0HU0sGbW0WJT-30" value="v2.0.0" style="shape=display;whiteSpace=wrap;html=1;fillColor=#dae8fc;strokeColor=#6c8ebf;fontFamily=Helvetica,Arial,sans-serif;spacingRight=4;align=right;" parent="1" vertex="1">
          <mxGeometry x="600" y="250" width="50" height="20" as="geometry" />
        </mxCell>
        <mxCell id="-NdfC_UC0HU0sGbW0WJT-31" value="2.0.0" style="shape=display;whiteSpace=wrap;html=1;fillColor=#fff2cc;strokeColor=#d6b656;fontFamily=Helvetica,Arial,sans-serif;spacingRight=4;align=right;" parent="1" vertex="1">
          <mxGeometry x="600" y="220" width="50" height="20" as="geometry" />
        </mxCell>
        <mxCell id="-NdfC_UC0HU0sGbW0WJT-33" style="edgeStyle=orthogonalEdgeStyle;shape=connector;rounded=0;orthogonalLoop=1;jettySize=auto;html=1;exitX=1;exitY=0.5;exitDx=0;exitDy=0;entryX=0;entryY=0.5;entryDx=0;entryDy=0;strokeColor=#56517E;strokeWidth=6;align=center;verticalAlign=middle;fontFamily=Helvetica,Arial,sans-serif;fontSize=11;fontColor=default;labelBackgroundColor=default;endArrow=none;endFill=0;fillColor=#e1d5e7;" parent="1" source="-NdfC_UC0HU0sGbW0WJT-14" target="-NdfC_UC0HU0sGbW0WJT-20" edge="1">
          <mxGeometry relative="1" as="geometry" />
        </mxCell>
        <mxCell id="-NdfC_UC0HU0sGbW0WJT-35" style="edgeStyle=orthogonalEdgeStyle;shape=connector;rounded=0;orthogonalLoop=1;jettySize=auto;html=1;exitX=1;exitY=0.5;exitDx=0;exitDy=0;exitPerimeter=0;entryX=0;entryY=0.5;entryDx=0;entryDy=0;entryPerimeter=0;strokeColor=#6c8ebf;strokeWidth=2;align=center;verticalAlign=middle;fontFamily=Helvetica,Arial,sans-serif;fontSize=11;fontColor=default;labelBackgroundColor=default;endArrow=blockThin;endFill=1;fillColor=#dae8fc;" parent="1" source="-NdfC_UC0HU0sGbW0WJT-2" target="-NdfC_UC0HU0sGbW0WJT-8" edge="1">
          <mxGeometry relative="1" as="geometry" />
        </mxCell>
        <mxCell id="-NdfC_UC0HU0sGbW0WJT-36" style="edgeStyle=orthogonalEdgeStyle;shape=connector;rounded=0;orthogonalLoop=1;jettySize=auto;html=1;exitX=1;exitY=0.5;exitDx=0;exitDy=0;exitPerimeter=0;entryX=0;entryY=0.5;entryDx=0;entryDy=0;entryPerimeter=0;strokeColor=#6c8ebf;strokeWidth=2;align=center;verticalAlign=middle;fontFamily=Helvetica,Arial,sans-serif;fontSize=11;fontColor=default;labelBackgroundColor=default;endArrow=blockThin;endFill=1;fillColor=#dae8fc;" parent="1" source="-NdfC_UC0HU0sGbW0WJT-8" target="-NdfC_UC0HU0sGbW0WJT-15" edge="1">
          <mxGeometry relative="1" as="geometry" />
        </mxCell>
        <mxCell id="-NdfC_UC0HU0sGbW0WJT-37" style="edgeStyle=orthogonalEdgeStyle;shape=connector;rounded=0;orthogonalLoop=1;jettySize=auto;html=1;exitX=1;exitY=0.5;exitDx=0;exitDy=0;exitPerimeter=0;entryX=0;entryY=0.5;entryDx=0;entryDy=0;entryPerimeter=0;strokeColor=#6c8ebf;strokeWidth=2;align=center;verticalAlign=middle;fontFamily=Helvetica,Arial,sans-serif;fontSize=11;fontColor=default;labelBackgroundColor=default;endArrow=blockThin;endFill=1;fillColor=#dae8fc;" parent="1" source="-NdfC_UC0HU0sGbW0WJT-15" target="-NdfC_UC0HU0sGbW0WJT-21" edge="1">
          <mxGeometry relative="1" as="geometry" />
        </mxCell>
        <mxCell id="-NdfC_UC0HU0sGbW0WJT-38" style="edgeStyle=orthogonalEdgeStyle;shape=connector;rounded=0;orthogonalLoop=1;jettySize=auto;html=1;exitX=1;exitY=0.5;exitDx=0;exitDy=0;exitPerimeter=0;entryX=0;entryY=0.5;entryDx=0;entryDy=0;entryPerimeter=0;strokeColor=#6c8ebf;strokeWidth=2;align=center;verticalAlign=middle;fontFamily=Helvetica,Arial,sans-serif;fontSize=11;fontColor=default;labelBackgroundColor=default;endArrow=blockThin;endFill=1;fillColor=#dae8fc;" parent="1" source="-NdfC_UC0HU0sGbW0WJT-21" target="-NdfC_UC0HU0sGbW0WJT-27" edge="1">
          <mxGeometry relative="1" as="geometry" />
        </mxCell>
        <mxCell id="-NdfC_UC0HU0sGbW0WJT-39" style="edgeStyle=orthogonalEdgeStyle;shape=connector;rounded=0;orthogonalLoop=1;jettySize=auto;html=1;exitX=1;exitY=0.5;exitDx=0;exitDy=0;exitPerimeter=0;entryX=0;entryY=0.5;entryDx=0;entryDy=0;entryPerimeter=0;strokeColor=#6c8ebf;strokeWidth=2;align=center;verticalAlign=middle;fontFamily=Helvetica,Arial,sans-serif;fontSize=11;fontColor=default;labelBackgroundColor=default;endArrow=blockThin;endFill=1;fillColor=#dae8fc;" parent="1" source="-NdfC_UC0HU0sGbW0WJT-3" target="-NdfC_UC0HU0sGbW0WJT-9" edge="1">
          <mxGeometry relative="1" as="geometry" />
        </mxCell>
        <mxCell id="-NdfC_UC0HU0sGbW0WJT-40" style="edgeStyle=orthogonalEdgeStyle;shape=connector;rounded=0;orthogonalLoop=1;jettySize=auto;html=1;exitX=1;exitY=0.5;exitDx=0;exitDy=0;exitPerimeter=0;entryX=0;entryY=0.5;entryDx=0;entryDy=0;entryPerimeter=0;strokeColor=#6c8ebf;strokeWidth=2;align=center;verticalAlign=middle;fontFamily=Helvetica,Arial,sans-serif;fontSize=11;fontColor=default;labelBackgroundColor=default;endArrow=blockThin;endFill=1;fillColor=#dae8fc;" parent="1" source="-NdfC_UC0HU0sGbW0WJT-9" target="-NdfC_UC0HU0sGbW0WJT-16" edge="1">
          <mxGeometry relative="1" as="geometry" />
        </mxCell>
        <mxCell id="-NdfC_UC0HU0sGbW0WJT-41" style="edgeStyle=orthogonalEdgeStyle;shape=connector;rounded=0;orthogonalLoop=1;jettySize=auto;html=1;exitX=1;exitY=0.5;exitDx=0;exitDy=0;exitPerimeter=0;entryX=0;entryY=0.5;entryDx=0;entryDy=0;entryPerimeter=0;strokeColor=#6c8ebf;strokeWidth=2;align=center;verticalAlign=middle;fontFamily=Helvetica,Arial,sans-serif;fontSize=11;fontColor=default;labelBackgroundColor=default;endArrow=blockThin;endFill=1;fillColor=#dae8fc;" parent="1" source="-NdfC_UC0HU0sGbW0WJT-16" target="-NdfC_UC0HU0sGbW0WJT-22" edge="1">
          <mxGeometry relative="1" as="geometry" />
        </mxCell>
        <mxCell id="-NdfC_UC0HU0sGbW0WJT-42" style="edgeStyle=orthogonalEdgeStyle;shape=connector;rounded=0;orthogonalLoop=1;jettySize=auto;html=1;exitX=1;exitY=0.5;exitDx=0;exitDy=0;exitPerimeter=0;entryX=0;entryY=0.5;entryDx=0;entryDy=0;entryPerimeter=0;strokeColor=#6c8ebf;strokeWidth=2;align=center;verticalAlign=middle;fontFamily=Helvetica,Arial,sans-serif;fontSize=11;fontColor=default;labelBackgroundColor=default;endArrow=blockThin;endFill=1;fillColor=#dae8fc;" parent="1" source="-NdfC_UC0HU0sGbW0WJT-4" target="-NdfC_UC0HU0sGbW0WJT-10" edge="1">
          <mxGeometry relative="1" as="geometry" />
        </mxCell>
        <mxCell id="-NdfC_UC0HU0sGbW0WJT-43" style="edgeStyle=orthogonalEdgeStyle;shape=connector;rounded=0;orthogonalLoop=1;jettySize=auto;html=1;exitX=1;exitY=0.5;exitDx=0;exitDy=0;exitPerimeter=0;entryX=0;entryY=0.5;entryDx=0;entryDy=0;entryPerimeter=0;strokeColor=#6c8ebf;strokeWidth=2;align=center;verticalAlign=middle;fontFamily=Helvetica,Arial,sans-serif;fontSize=11;fontColor=default;labelBackgroundColor=default;endArrow=blockThin;endFill=1;fillColor=#dae8fc;" parent="1" source="-NdfC_UC0HU0sGbW0WJT-17" target="-NdfC_UC0HU0sGbW0WJT-23" edge="1">
          <mxGeometry relative="1" as="geometry" />
        </mxCell>
        <mxCell id="-NdfC_UC0HU0sGbW0WJT-44" value="" style="shape=curlyBracket;whiteSpace=wrap;html=1;rounded=1;labelPosition=left;verticalLabelPosition=middle;align=right;verticalAlign=middle;fontFamily=Helvetica,Arial,sans-serif;fontSize=11;fontColor=default;labelBackgroundColor=default;" parent="1" vertex="1">
          <mxGeometry x="210" y="250" width="20" height="110" as="geometry" />
        </mxCell>
        <mxCell id="-NdfC_UC0HU0sGbW0WJT-45" value="main" style="rounded=1;whiteSpace=wrap;html=1;fontFamily=Helvetica,Arial,sans-serif;fontSize=11;labelBackgroundColor=none;fillColor=#d0cee2;strokeColor=#56517e;" parent="1" vertex="1">
          <mxGeometry x="160" y="375" width="40" height="20" as="geometry" />
        </mxCell>
        <mxCell id="-NdfC_UC0HU0sGbW0WJT-46" value="Moving tags" style="text;html=1;align=right;verticalAlign=middle;resizable=0;points=[];autosize=1;strokeColor=none;fillColor=none;fontFamily=Helvetica,Arial,sans-serif;fontSize=11;fontColor=default;labelBackgroundColor=default;" parent="1" vertex="1">
          <mxGeometry x="120" y="290" width="80" height="30" as="geometry" />
        </mxCell>
        <mxCell id="-NdfC_UC0HU0sGbW0WJT-47" value="Default tags" style="text;html=1;align=right;verticalAlign=middle;resizable=0;points=[];autosize=1;strokeColor=none;fillColor=none;fontFamily=Helvetica,Arial,sans-serif;fontSize=11;fontColor=default;labelBackgroundColor=default;" parent="1" vertex="1">
          <mxGeometry x="120" y="215" width="80" height="30" as="geometry" />
        </mxCell>
        <mxCell id="-NdfC_UC0HU0sGbW0WJT-49" value="commit 1" style="text;html=1;align=center;verticalAlign=middle;whiteSpace=wrap;rounded=0;fontFamily=Helvetica,Arial,sans-serif;fontSize=11;fontColor=default;labelBackgroundColor=default;rotation=-45;" parent="1" vertex="1">
          <mxGeometry x="215" y="414" width="60" height="20" as="geometry" />
        </mxCell>
        <mxCell id="-NdfC_UC0HU0sGbW0WJT-50" value="commit 2" style="text;html=1;align=center;verticalAlign=middle;whiteSpace=wrap;rounded=0;fontFamily=Helvetica,Arial,sans-serif;fontSize=11;fontColor=default;labelBackgroundColor=default;rotation=315;" parent="1" vertex="1">
          <mxGeometry x="305" y="414" width="60" height="20" as="geometry" />
        </mxCell>
        <mxCell id="-NdfC_UC0HU0sGbW0WJT-51" value="commit 3" style="text;html=1;align=center;verticalAlign=middle;whiteSpace=wrap;rounded=0;fontFamily=Helvetica,Arial,sans-serif;fontSize=11;fontColor=default;labelBackgroundColor=default;rotation=315;" parent="1" vertex="1">
          <mxGeometry x="395" y="414" width="60" height="20" as="geometry" />
        </mxCell>
        <mxCell id="-NdfC_UC0HU0sGbW0WJT-52" value="commit 4" style="text;html=1;align=center;verticalAlign=middle;whiteSpace=wrap;rounded=0;fontFamily=Helvetica,Arial,sans-serif;fontSize=11;fontColor=default;labelBackgroundColor=default;rotation=315;" parent="1" vertex="1">
          <mxGeometry x="485" y="414" width="60" height="20" as="geometry" />
        </mxCell>
        <mxCell id="-NdfC_UC0HU0sGbW0WJT-53" value="commit 5" style="text;html=1;align=center;verticalAlign=middle;whiteSpace=wrap;rounded=0;fontFamily=Helvetica,Arial,sans-serif;fontSize=11;fontColor=default;labelBackgroundColor=default;rotation=315;" parent="1" vertex="1">
          <mxGeometry x="575" y="414" width="60" height="20" as="geometry" />
        </mxCell>
      </root>
    </mxGraphModel>
  </diagram>
</mxfile>
